# xmcd
#
# Track frame offsets:
#	150
#	28767
#	51000
#	70827
#	119938
#	166266
#	186338
#	231661
#
# Disc length: 3744 seconds
#
# Revision: 2
# Processed by: cddbd v1.5.2PL0 Copyright (c) Steve Scherf et al.
# Submitted via: EasyCDDAExtractor 16.0.8.1
#
DISCID=770e9e08
DTITLE=Jack Bruce& His Big Blues Band  - Live 2012 disc 2
DYEAR=2012
DGENRE=Blues
TTITLE0=Theme From An Imaginary Western
TTITLE1=Tickets To Waterfalls
TTITLE2=Never Tell Your Mother She's Out Of Tune
TTITLE3=Born Under A Bad Sign
TTITLE4=We're Going Wrong
TTITLE5=Deserted Cities Of The Heart
TTITLE6=White Room - Drum Solo
TTITLE7=Sunshine Of Your Love
EXTD=
EXTT0=
EXTT1=
EXTT2=
EXTT3=
EXTT4=
EXTT5=
EXTT6=
EXTT7=
PLAYORDER=
